<svg xmlns="http://www.w3.org/2000/svg" fill="none" viewBox="0 0 128 128">
  <!-- 背景圆（深色模式背景
  <circle cx="64" cy="64" r="64" fill="#0F4C81"/>
  
  <!-- 工具箱
  <g transform="scale(0.8) translate(12, 8)">
    <!-- 工具箱主体（深蓝色
    <path d="M10 50 L10 80 Q10 85 15 85 L85 85 Q90 85 90 80 L90 50 L10 50 Z" fill="#0F4C81" />
    
    <!-- 工具箱顶部
    <path d="M20 45 L80 45 L80 50 L20 50 Z" fill="#0F4C81" />
    
    <!-- 工具箱把手
    <rect x="35" y="30" width="30" height="15" rx="5" fill="#0F4C81" />
    
    <!-- 工具箱内部白色部分（扳手（橙色
    <path d="M25 50 L25 70 L35 70 L35 50 Z" fill="#F76D2A"/>
    <path d="M40 50 L40 70 L50 70 L50 50 Z" fill="#0F4C81"/>
    <path d="M55 50 L55 70 L65 70 L65 50 Z" fill="#0F4C81"/>
    <path d="M70 50 L70 70 L80 70 L80 50 Z" fill="#0F4C81"/>
    
    <!-- 简单图案（示意
    <rect x="25" y="55" width="6" height="6" fill="#0F4C81"/>
    <rect x="25" y="65" width="6" height="6" fill="#0F4C81"/>
    <rect x="35" y="60" width="6" height="6" fill="#0F4C81"/>
    <rect x="35" y="70" width="6" height="6" fill="#0F4C81"/>
  </g>
</svg>
